<svg width="24" height="23" viewBox="0 0 24 23" fill="none" xmlns="http://www.w3.org/2000/svg">
<path d="M1.91623 7.02009C1.91623 7.02009 1.561 0.410876 2.99711 0.0804153C4.43321 -0.250045 6.91045 2.12135 6.91045 2.12135L1.91623 7.02009Z" fill="black"/>
<path d="M15.4817 2.28176C15.4817 2.28176 18.133 -0.358426 20.012 0.0814123C21.8898 0.521251 20.4549 5.73997 20.4549 5.73997L15.4817 2.28176Z" fill="black"/>
<path d="M20.6684 19.1065C18.6783 20.6789 17.3474 21.1931 15.0852 21.8052C13.5754 22.2136 9.7727 22.1932 6.22934 20.767C3.74712 19.6811 2.77425 18.5003 2.30568 17.8568C1.89786 17.2971 1.06816 16.0551 1.02071 14.6965C0.951716 12.7186 1.00959 10.7892 1.91752 7.02267C2.82545 3.25495 6.91175 2.12393 6.91175 2.12393C11.3766 1.06971 15.0843 1.89819 16.3709 2.12393C17.6574 2.34966 21.3125 4.66406 21.6268 9.30214C21.6747 9.99564 22.4521 12.4627 22.5266 14.5348C22.5494 15.1703 22.5675 16.0164 22.2512 16.8843C21.8863 17.8853 21.0715 18.769 20.6684 19.1065Z" fill="#F07F2E" stroke="black" stroke-width="0.4" stroke-miterlimit="10"/>
<path d="M8.36147 9.74748C8.39302 9.68813 8.42925 9.63112 8.46781 9.57527C8.48651 9.5485 8.5052 9.52173 8.5239 9.49497C8.53442 9.48101 8.5461 9.46588 8.55662 9.45192C8.58233 9.41585 8.49936 9.52058 8.55194 9.45774C8.60569 9.39258 8.66061 9.32975 8.72137 9.27041C8.75292 9.23899 8.78565 9.20873 8.81954 9.17964C8.83122 9.16917 8.89081 9.12147 8.84407 9.15754C8.79733 9.19361 8.8651 9.14357 8.88029 9.1331C8.91768 9.1075 8.95741 9.08306 8.99831 9.06212C9.01817 9.05165 9.03921 9.04234 9.06024 9.03186C9.10114 9.01092 8.98663 9.05513 9.06726 9.0307C9.11166 9.01674 9.15605 9.00627 9.20046 8.9958C9.26005 8.98067 9.12451 8.99813 9.18644 8.99813C9.21331 8.99813 9.2402 8.99464 9.26824 8.9958C9.29278 8.9958 9.31732 9.00044 9.34069 9.00044C9.38509 9.00044 9.26941 8.98067 9.31148 8.99696C9.32082 9.00046 9.33368 9.00045 9.3442 9.00394C9.3699 9.01092 9.3956 9.01674 9.42014 9.02489C9.43066 9.02838 9.44234 9.03303 9.45286 9.03652C9.5218 9.0563 9.41314 9.01092 9.44703 9.03419C9.50428 9.07259 9.57088 9.10169 9.62931 9.14008C9.64099 9.14823 9.65268 9.15637 9.66437 9.16568C9.60828 9.12263 9.66436 9.16684 9.67488 9.17731C9.70643 9.2064 9.73916 9.23433 9.76954 9.26458C9.92612 9.4205 10.0219 9.55665 10.1411 9.74864C10.2404 9.90805 10.4543 9.97088 10.6202 9.8743C10.7803 9.78122 10.8457 9.55781 10.7464 9.39723C10.3713 8.79566 9.80226 8.1871 9.02403 8.32324C8.55662 8.40469 8.19087 8.77239 7.92328 9.13892C7.86252 9.22153 7.80409 9.30764 7.75618 9.39723C7.66737 9.56363 7.71412 9.77656 7.88239 9.8743C8.04014 9.9639 8.27267 9.91387 8.36147 9.74748Z" fill="black"/>
<path d="M18.6007 9.2484C18.6311 9.19138 18.6662 9.13671 18.7024 9.08318C18.7199 9.05758 18.7375 9.03198 18.7561 9.00638C18.7667 8.99242 18.7772 8.97845 18.7865 8.96449C18.8122 8.92958 18.7281 9.03547 18.7807 8.97379C18.8321 8.91212 18.8847 8.85161 18.9431 8.7946C18.9735 8.76434 19.005 8.73525 19.0378 8.70849C19.0494 8.69802 19.1079 8.65148 19.06 8.68872C19.0121 8.72595 19.0775 8.67591 19.0927 8.6666C19.1289 8.64217 19.1663 8.6189 19.2049 8.59796C19.2247 8.58748 19.2446 8.57817 19.2633 8.56887C19.3042 8.54792 19.1862 8.5933 19.2668 8.56887C19.3089 8.55607 19.3521 8.54559 19.3953 8.53512C19.4538 8.52115 19.317 8.53861 19.3778 8.53745C19.4035 8.53745 19.4292 8.53395 19.4561 8.53512C19.4795 8.53512 19.5028 8.53978 19.5262 8.53978C19.5706 8.53978 19.4526 8.51999 19.4935 8.53628C19.5028 8.53977 19.5145 8.53978 19.5239 8.54211C19.5484 8.54909 19.5729 8.5549 19.5963 8.56188C19.6068 8.56537 19.6174 8.57003 19.6279 8.57236C19.6956 8.59214 19.5858 8.54559 19.6185 8.5677C19.6734 8.60494 19.7365 8.6317 19.7926 8.6701C19.8043 8.67824 19.8148 8.68638 19.8253 8.69453C19.7657 8.64915 19.8207 8.69221 19.8324 8.70268C19.8627 8.73061 19.8943 8.75737 19.9235 8.78646C20.0766 8.93889 20.1584 9.05757 20.2776 9.24724C20.3769 9.40665 20.5907 9.46949 20.7566 9.37291C20.9167 9.27983 20.9822 9.0564 20.8828 8.89583C20.5194 8.31403 19.9691 7.72876 19.2165 7.86024C18.7643 7.93937 18.4126 8.29426 18.1532 8.648C18.0948 8.72712 18.0399 8.80972 17.9931 8.89583C17.9043 9.06222 17.951 9.27517 18.1193 9.37291C18.2794 9.466 18.5119 9.41596 18.6007 9.2484Z" fill="black"/>
<path d="M10.6222 12.7718L6.99634 12.6555" stroke="black" stroke-width="0.4" stroke-miterlimit="10"/>
<path d="M10.6823 14.0162L7.5343 14.4816" stroke="black" stroke-width="0.4" stroke-miterlimit="10"/>
<path d="M20.174 12.2346L23.7998 12.1182" stroke="black" stroke-width="0.4" stroke-miterlimit="10"/>
<path d="M20.1146 13.4751L23.2626 13.9394" stroke="black" stroke-width="0.4" stroke-miterlimit="10"/>
<path d="M14.9868 13.6354C14.9868 13.6354 16.7408 16.0534 18.2248 13.5912" stroke="black" stroke-width="0.4" stroke-miterlimit="10"/>
<path d="M16.6202 11.8287V14.5596" stroke="black" stroke-width="0.4" stroke-miterlimit="10"/>
<path d="M16.5883 11.9516C17.3227 11.9516 17.9181 11.5338 17.9181 11.0184C17.9181 10.503 17.3227 10.0852 16.5883 10.0852C15.8539 10.0852 15.2585 10.503 15.2585 11.0184C15.2585 11.5338 15.8539 11.9516 16.5883 11.9516Z" fill="black"/>
<path d="M4.94019 10.6311C6.11922 9.41516 2.35076 6.86341 2.07265 6.75403C2.06097 6.74938 1.00117 11.5249 1.05535 14.4C1.06801 15.0715 1.19556 15.7705 1.19556 15.7705C1.41641 15.9659 1.56085 16.5957 3.21312 15.7917C4.13742 15.3414 4.31971 14.4244 3.47838 14.2476C1.85999 13.909 3.48305 13.5483 3.2178 12.9083C2.54824 11.2932 3.7004 11.9099 4.94019 10.6311Z" fill="black" stroke="black" stroke-width="0.4" stroke-miterlimit="10"/>
<path d="M20.9513 15.374C21.0881 13.9439 22.4302 14.3476 22.4302 14.3476C22.8769 16.958 21.3147 18.7312 20.1886 19.3518C19.9151 19.3518 19.6531 17.7559 20.2678 17.5523C20.8824 17.3486 20.8146 16.8041 20.9513 15.374Z" fill="black" stroke="black" stroke-width="0.4" stroke-miterlimit="10"/>
</svg>
