<svg width="16" height="16" viewBox="0 0 16 16" fill="none" xmlns="http://www.w3.org/2000/svg">
<path d="M8.68539 1.334C9.17188 1.33213 9.65837 1.33702 10.1447 1.34866L10.2741 1.35333C10.4234 1.35866 10.5707 1.36533 10.7487 1.37333C11.4581 1.40666 11.9421 1.51866 12.3667 1.68333C12.8067 1.85266 13.1774 2.082 13.5481 2.45266C13.887 2.78573 14.1493 3.18863 14.3167 3.63333C14.4814 4.058 14.5934 4.54266 14.6267 5.252C14.6347 5.42933 14.6414 5.57733 14.6467 5.72666L14.6507 5.856C14.6626 6.34212 14.6677 6.82839 14.6661 7.31466L14.6667 7.812V8.68533C14.6684 9.17182 14.6633 9.65831 14.6514 10.1447L14.6474 10.274C14.6421 10.4233 14.6354 10.5707 14.6274 10.7487C14.5941 11.458 14.4807 11.942 14.3167 12.3667C14.1498 12.8118 13.8875 13.2151 13.5481 13.548C13.2147 13.8869 12.8116 14.1492 12.3667 14.3167C11.9421 14.4813 11.4581 14.5933 10.7487 14.6267C10.5707 14.6347 10.4234 14.6413 10.2741 14.6467L10.1447 14.6507C9.65838 14.6625 9.17188 14.6676 8.68539 14.666L8.18806 14.6667H7.31539C6.8289 14.6683 6.34241 14.6632 5.85606 14.6513L5.72673 14.6473C5.56847 14.6416 5.41024 14.6349 5.25206 14.6273C4.54273 14.594 4.05873 14.4807 3.63339 14.3167C3.18851 14.1496 2.78555 13.8872 2.45273 13.548C2.11342 13.2149 1.85088 12.8117 1.68339 12.3667C1.51873 11.942 1.40673 11.458 1.37339 10.7487C1.36597 10.5905 1.3593 10.4322 1.35339 10.274L1.35006 10.1447C1.33777 9.65832 1.33221 9.17183 1.33339 8.68533V7.31466C1.33153 6.8284 1.33642 6.34213 1.34806 5.856L1.35273 5.72666C1.35806 5.57733 1.36473 5.42933 1.37273 5.252C1.40606 4.542 1.51806 4.05866 1.68273 3.63333C1.85031 3.18841 2.11337 2.78563 2.45339 2.45333C2.78599 2.11383 3.1887 1.85104 3.63339 1.68333C4.05873 1.51866 4.54206 1.40666 5.25206 1.37333L5.72673 1.35333L5.85606 1.35C6.34218 1.33771 6.82845 1.33216 7.31473 1.33333L8.68539 1.334ZM8.00006 4.66733C7.5584 4.66108 7.1199 4.74268 6.71004 4.90737C6.30019 5.07207 5.92716 5.31658 5.61262 5.6267C5.29809 5.93682 5.04833 6.30635 4.87785 6.71384C4.70738 7.12132 4.61959 7.55862 4.61959 8.00033C4.61959 8.44204 4.70738 8.87934 4.87785 9.28682C5.04833 9.6943 5.29809 10.0638 5.61262 10.374C5.92716 10.6841 6.30019 10.9286 6.71004 11.0933C7.1199 11.258 7.5584 11.3396 8.00006 11.3333C8.88411 11.3333 9.73196 10.9821 10.3571 10.357C10.9822 9.7319 11.3334 8.88405 11.3334 8C11.3334 7.11594 10.9822 6.26809 10.3571 5.64297C9.73196 5.01785 8.88411 4.66733 8.00006 4.66733ZM8.00006 6.00066C8.26573 5.99577 8.52971 6.04386 8.77659 6.14213C9.02347 6.24041 9.24828 6.38689 9.43791 6.57303C9.62754 6.75916 9.77818 6.98122 9.88102 7.22622C9.98387 7.47123 10.0369 7.73427 10.0369 7.99999C10.0369 8.26571 9.98404 8.52877 9.88128 8.77381C9.77852 9.01885 9.62795 9.24095 9.43839 9.42715C9.24882 9.61335 9.02405 9.75991 8.77721 9.85826C8.53037 9.95662 8.2664 10.0048 8.00073 10C7.47029 10 6.96159 9.78928 6.58651 9.41421C6.21144 9.03914 6.00073 8.53043 6.00073 8C6.00073 7.46956 6.21144 6.96085 6.58651 6.58578C6.96159 6.21071 7.47029 6 8.00073 6L8.00006 6.00066ZM11.5001 3.66733C11.285 3.67594 11.0816 3.76743 10.9325 3.92264C10.7833 4.07786 10.7001 4.28475 10.7001 4.5C10.7001 4.71524 10.7833 4.92213 10.9325 5.07735C11.0816 5.23256 11.285 5.32405 11.5001 5.33266C11.7211 5.33266 11.933 5.24486 12.0893 5.08858C12.2456 4.9323 12.3334 4.72034 12.3334 4.49933C12.3334 4.27832 12.2456 4.06635 12.0893 3.91007C11.933 3.75379 11.7211 3.666 11.5001 3.666V3.66733Z" fill="#2F2F37"/>
</svg>
