<svg width="16" height="16" viewBox="0 0 16 16" fill="none" xmlns="http://www.w3.org/2000/svg">
<path d="M10.6667 5.49666V10.3333C10.6665 11.2334 10.386 12.111 9.86429 12.8444C9.34255 13.5777 8.6054 14.1305 7.7552 14.4258C6.905 14.7211 5.98394 14.7444 5.11992 14.4923C4.2559 14.2403 3.49179 13.7255 2.93369 13.0194C2.37559 12.3133 2.05121 11.4509 2.00558 10.5521C1.95994 9.6532 2.19533 8.76242 2.67904 8.00343C3.16276 7.24444 3.87081 6.6549 4.70486 6.31666C5.53892 5.97843 6.4576 5.9083 7.33333 6.11599V8.22466C6.87655 8.00799 6.36174 7.94554 5.8664 8.04671C5.37105 8.14788 4.92197 8.4072 4.58673 8.78565C4.2515 9.16409 4.04825 9.64118 4.00757 10.1451C3.96689 10.649 4.09098 11.1525 4.36118 11.5799C4.63137 12.0072 5.03305 12.3352 5.50575 12.5145C5.97845 12.6938 6.49661 12.7147 6.98224 12.5741C7.46786 12.4335 7.89469 12.139 8.19847 11.7349C8.50226 11.3308 8.66656 10.8389 8.66667 10.3333V1.33333H10.6667C10.6667 2.21738 11.0179 3.06523 11.643 3.69035C12.2681 4.31547 13.1159 4.66666 14 4.66666V6.66666C12.7879 6.66848 11.6117 6.25562 10.6667 5.49666Z" fill="#2F2F37"/>
</svg>
