<svg width="16" height="16" viewBox="0 0 16 16" fill="none" xmlns="http://www.w3.org/2000/svg">
<path d="M8.16271 2.66667C8.51871 2.66867 9.40937 2.67734 10.356 2.71534L10.692 2.73C11.6447 2.77467 12.5967 2.85201 13.0694 2.98334C13.6994 3.16067 14.194 3.67667 14.3614 4.33134C14.628 5.37134 14.6614 7.39934 14.6654 7.89067L14.666 7.99201V8.10801C14.6614 8.59934 14.628 10.628 14.3614 11.6673C14.192 12.324 13.6967 12.8407 13.0694 13.0153C12.5967 13.1467 11.6447 13.224 10.692 13.2687L10.356 13.284C9.40937 13.3213 8.51871 13.3307 8.16271 13.332L8.00604 13.3327H7.83604C7.08271 13.328 3.93204 13.294 2.92937 13.0153C2.30004 12.838 1.80471 12.322 1.63737 11.6673C1.37071 10.6273 1.33737 8.59934 1.33337 8.10801V7.89067C1.33737 7.39934 1.37071 5.37067 1.63737 4.33134C1.80671 3.67467 2.30204 3.158 2.93004 2.984C3.93204 2.70467 7.08337 2.67067 7.83671 2.66667H8.16271ZM6.66604 5.66667V10.3333L10.666 8.00001L6.66604 5.66667Z" fill="#2F2F37"/>
</svg>
